<svg xmlns="http://www.w3.org/2000/svg" viewBox="0 0 64 64" role="img" aria-label="Email AI sorting icon">
  <defs>
    <linearGradient id="bg" x1="0%" y1="0%" x2="100%" y2="100%">
      <stop offset="0%" stop-color="#0ea5e9" />
      <stop offset="100%" stop-color="#4338ca" />
    </linearGradient>
    <linearGradient id="mail" x1="0%" y1="0%" x2="0%" y2="100%">
      <stop offset="0%" stop-color="#f8fafc" />
      <stop offset="100%" stop-color="#e2e8f0" />
    </linearGradient>
    <linearGradient id="flap" x1="0%" y1="0%" x2="100%" y2="100%">
      <stop offset="0%" stop-color="#dbeafe" />
      <stop offset="100%" stop-color="#bfdbfe" />
    </linearGradient>
  </defs>
  <rect width="64" height="64" rx="14" fill="url(#bg)"/>
  <path d="M11 20h42c2.8 0 5 2.2 5 5v22c0 2.8-2.2 5-5 5H11c-2.8 0-5-2.2-5-5V25c0-2.8 2.2-5 5-5z" fill="url(#mail)" stroke="#cbd5f5" stroke-width="1.5" fill-opacity="0.98"/>
  <path d="M8.5 23.5l23.5 16.5c0.9 0.6 2.1 0.6 3 0L58.5 23.5" fill="none" stroke="#60a5fa" stroke-width="3" stroke-linecap="round" stroke-linejoin="round"/>
  <path d="M11 20h42c2.8 0 5 2.2 5 5v2.5L35 43c-1 0.7-2.3 1-3.5 1s-2.5-0.3-3.5-1L6 27.5V25c0-2.8 2.2-5 5-5z" fill="url(#flap)" fill-opacity="0.85"/>
  <path d="M18 44l8.5-7.5c1.4-1.2 3.4-1.2 4.8 0L40 44" fill="none" stroke="#38bdf8" stroke-width="3" stroke-linecap="round" stroke-linejoin="round"/>
  <path d="M41 11.5c4.4-0.4 9 1.5 11.9 4.8c3.1 3.5 4.5 8.3 3.5 12.8" fill="none" stroke="#ffffff" stroke-opacity="0.4" stroke-width="1.5" stroke-linecap="round"/>
  <path d="M36.5 15.2c3.1-2.3 7.4-3.3 11.3-2.4" fill="none" stroke="#a5b4fc" stroke-width="1.3" stroke-linecap="round"/>
  <circle cx="48" cy="16" r="3.2" fill="#fcd34d" stroke="#fef3c7" stroke-width="1.5"/>
  <circle cx="56.5" cy="29" r="2.3" fill="#f472b6" stroke="#fee2e2" stroke-width="1.2"/>
  <circle cx="38.5" cy="14" r="2" fill="#22d3ee" stroke="#e0f2fe" stroke-width="1.2"/>
  <path d="M46.3 18.5l1.2 2.5l2.7 0.4l-2 2l0.5 2.8l-2.4-1.3l-2.4 1.3l0.5-2.8l-2-2l2.7-0.4z" fill="#fde68a"/>
  <path d="M25.5 35.7l5.2 5.7l8-10.5" fill="none" stroke="#22c55e" stroke-width="3" stroke-linecap="round" stroke-linejoin="round"/>
</svg>
